<mxfile host="app.diagrams.net" modified="2024-05-05T15:55:45.286Z" agent="Mozilla/5.0 (Windows NT 10.0; Win64; x64; rv:125.0) Gecko/20100101 Firefox/125.0" etag="eyEm_osz45Xs0pGYQW8N" version="24.3.1" type="device">
  <diagram name="Page-1" id="i426EweY9k0fB_F2wGhc">
    <mxGraphModel dx="1900" dy="1256" grid="0" gridSize="10" guides="1" tooltips="1" connect="1" arrows="1" fold="1" page="0" pageScale="1" pageWidth="827" pageHeight="1169" math="0" shadow="0">
      <root>
        <mxCell id="0" />
        <mxCell id="1" parent="0" />
        <mxCell id="GZttbLxg8JypA5IhUF5--1" value="Τίτλος" style="rounded=0;whiteSpace=wrap;html=1;" vertex="1" parent="1">
          <mxGeometry x="-299" y="-35" width="197" height="24" as="geometry" />
        </mxCell>
        <mxCell id="GZttbLxg8JypA5IhUF5--2" value="Έναρξη" style="rounded=0;whiteSpace=wrap;html=1;" vertex="1" parent="1">
          <mxGeometry x="-102" y="-35" width="77" height="24" as="geometry" />
        </mxCell>
        <mxCell id="GZttbLxg8JypA5IhUF5--3" value="Λήξη" style="rounded=0;whiteSpace=wrap;html=1;" vertex="1" parent="1">
          <mxGeometry x="-25" y="-35" width="66" height="24" as="geometry" />
        </mxCell>
        <mxCell id="GZttbLxg8JypA5IhUF5--4" value="Διάρκεια" style="rounded=0;whiteSpace=wrap;html=1;" vertex="1" parent="1">
          <mxGeometry x="41" y="-35" width="71" height="24" as="geometry" />
        </mxCell>
        <mxCell id="GZttbLxg8JypA5IhUF5--5" value="&lt;div align=&quot;left&quot;&gt;Project Description v0.1&lt;/div&gt;" style="rounded=0;whiteSpace=wrap;html=1;align=left;" vertex="1" parent="1">
          <mxGeometry x="-299" y="10" width="197" height="21" as="geometry" />
        </mxCell>
        <mxCell id="GZttbLxg8JypA5IhUF5--6" value="28/2/2024" style="rounded=0;whiteSpace=wrap;html=1;" vertex="1" parent="1">
          <mxGeometry x="-102" y="10" width="77" height="21" as="geometry" />
        </mxCell>
        <mxCell id="GZttbLxg8JypA5IhUF5--7" value="3/3/2024" style="rounded=0;whiteSpace=wrap;html=1;" vertex="1" parent="1">
          <mxGeometry x="-25" y="10" width="66" height="21" as="geometry" />
        </mxCell>
        <mxCell id="GZttbLxg8JypA5IhUF5--8" value="5" style="rounded=0;whiteSpace=wrap;html=1;" vertex="1" parent="1">
          <mxGeometry x="41" y="10" width="71" height="21" as="geometry" />
        </mxCell>
        <mxCell id="GZttbLxg8JypA5IhUF5--9" value="&lt;div align=&quot;left&quot;&gt;Project Plan v0.1&lt;/div&gt;" style="rounded=0;whiteSpace=wrap;html=1;align=left;" vertex="1" parent="1">
          <mxGeometry x="-299" y="31" width="197" height="21" as="geometry" />
        </mxCell>
        <mxCell id="GZttbLxg8JypA5IhUF5--10" value="4/3/2024" style="rounded=0;whiteSpace=wrap;html=1;" vertex="1" parent="1">
          <mxGeometry x="-102" y="31" width="77" height="21" as="geometry" />
        </mxCell>
        <mxCell id="GZttbLxg8JypA5IhUF5--11" value="11/3/2024" style="rounded=0;whiteSpace=wrap;html=1;" vertex="1" parent="1">
          <mxGeometry x="-25" y="31" width="66" height="21" as="geometry" />
        </mxCell>
        <mxCell id="GZttbLxg8JypA5IhUF5--12" value="8" style="rounded=0;whiteSpace=wrap;html=1;" vertex="1" parent="1">
          <mxGeometry x="41" y="31" width="71" height="21" as="geometry" />
        </mxCell>
        <mxCell id="GZttbLxg8JypA5IhUF5--13" value="&lt;div align=&quot;left&quot;&gt;Team Plan v0.1&lt;/div&gt;" style="rounded=0;whiteSpace=wrap;html=1;align=left;" vertex="1" parent="1">
          <mxGeometry x="-299" y="52" width="197" height="21" as="geometry" />
        </mxCell>
        <mxCell id="GZttbLxg8JypA5IhUF5--14" value="4/3/2024" style="rounded=0;whiteSpace=wrap;html=1;" vertex="1" parent="1">
          <mxGeometry x="-102" y="52" width="77" height="21" as="geometry" />
        </mxCell>
        <mxCell id="GZttbLxg8JypA5IhUF5--15" value="13/3/2024" style="rounded=0;whiteSpace=wrap;html=1;" vertex="1" parent="1">
          <mxGeometry x="-25" y="52" width="66" height="21" as="geometry" />
        </mxCell>
        <mxCell id="GZttbLxg8JypA5IhUF5--16" value="10" style="rounded=0;whiteSpace=wrap;html=1;" vertex="1" parent="1">
          <mxGeometry x="41" y="52" width="71" height="21" as="geometry" />
        </mxCell>
        <mxCell id="GZttbLxg8JypA5IhUF5--17" value="&lt;div align=&quot;left&quot;&gt;Risk Assessment v0.1&lt;/div&gt;" style="rounded=0;whiteSpace=wrap;html=1;align=left;" vertex="1" parent="1">
          <mxGeometry x="-299" y="73" width="197" height="21" as="geometry" />
        </mxCell>
        <mxCell id="GZttbLxg8JypA5IhUF5--18" value="4/3/2024" style="rounded=0;whiteSpace=wrap;html=1;" vertex="1" parent="1">
          <mxGeometry x="-102" y="73" width="77" height="21" as="geometry" />
        </mxCell>
        <mxCell id="GZttbLxg8JypA5IhUF5--19" value="8/3/2024" style="rounded=0;whiteSpace=wrap;html=1;" vertex="1" parent="1">
          <mxGeometry x="-25" y="73" width="66" height="21" as="geometry" />
        </mxCell>
        <mxCell id="GZttbLxg8JypA5IhUF5--20" value="5" style="rounded=0;whiteSpace=wrap;html=1;" vertex="1" parent="1">
          <mxGeometry x="41" y="73" width="71" height="21" as="geometry" />
        </mxCell>
        <mxCell id="GZttbLxg8JypA5IhUF5--21" value="&lt;div align=&quot;left&quot;&gt;Use Cases v0.1&lt;/div&gt;" style="rounded=0;whiteSpace=wrap;html=1;align=left;" vertex="1" parent="1">
          <mxGeometry x="-299" y="94" width="197" height="21" as="geometry" />
        </mxCell>
        <mxCell id="GZttbLxg8JypA5IhUF5--22" value="14/3/2024" style="rounded=0;whiteSpace=wrap;html=1;" vertex="1" parent="1">
          <mxGeometry x="-102" y="94" width="77" height="21" as="geometry" />
        </mxCell>
        <mxCell id="GZttbLxg8JypA5IhUF5--23" value="30/3/2024" style="rounded=0;whiteSpace=wrap;html=1;" vertex="1" parent="1">
          <mxGeometry x="-25" y="94" width="66" height="21" as="geometry" />
        </mxCell>
        <mxCell id="GZttbLxg8JypA5IhUF5--24" value="17" style="rounded=0;whiteSpace=wrap;html=1;" vertex="1" parent="1">
          <mxGeometry x="41" y="94" width="71" height="21" as="geometry" />
        </mxCell>
        <mxCell id="GZttbLxg8JypA5IhUF5--25" value="&lt;div align=&quot;left&quot;&gt;Domain Model v0.1&lt;br&gt;&lt;/div&gt;" style="rounded=0;whiteSpace=wrap;html=1;align=left;" vertex="1" parent="1">
          <mxGeometry x="-299" y="115" width="197" height="21" as="geometry" />
        </mxCell>
        <mxCell id="GZttbLxg8JypA5IhUF5--26" value="31/3/2024" style="rounded=0;whiteSpace=wrap;html=1;" vertex="1" parent="1">
          <mxGeometry x="-102" y="115" width="77" height="21" as="geometry" />
        </mxCell>
        <mxCell id="GZttbLxg8JypA5IhUF5--27" value="6/4/2024" style="rounded=0;whiteSpace=wrap;html=1;" vertex="1" parent="1">
          <mxGeometry x="-25" y="115" width="66" height="21" as="geometry" />
        </mxCell>
        <mxCell id="GZttbLxg8JypA5IhUF5--28" value="7" style="rounded=0;whiteSpace=wrap;html=1;" vertex="1" parent="1">
          <mxGeometry x="41" y="115" width="71" height="21" as="geometry" />
        </mxCell>
        <mxCell id="GZttbLxg8JypA5IhUF5--29" value="&lt;div align=&quot;left&quot;&gt;1o Παραδοτέο&lt;/div&gt;" style="rounded=0;whiteSpace=wrap;html=1;align=left;" vertex="1" parent="1">
          <mxGeometry x="-299" y="136" width="197" height="21" as="geometry" />
        </mxCell>
        <mxCell id="GZttbLxg8JypA5IhUF5--30" value="7/4/2024" style="rounded=0;whiteSpace=wrap;html=1;" vertex="1" parent="1">
          <mxGeometry x="-102" y="136" width="77" height="21" as="geometry" />
        </mxCell>
        <mxCell id="GZttbLxg8JypA5IhUF5--31" value="7/4/2024" style="rounded=0;whiteSpace=wrap;html=1;" vertex="1" parent="1">
          <mxGeometry x="-25" y="136" width="66" height="21" as="geometry" />
        </mxCell>
        <mxCell id="GZttbLxg8JypA5IhUF5--32" value="1" style="rounded=0;whiteSpace=wrap;html=1;" vertex="1" parent="1">
          <mxGeometry x="41" y="136" width="71" height="21" as="geometry" />
        </mxCell>
        <mxCell id="GZttbLxg8JypA5IhUF5--33" value="" style="rounded=0;whiteSpace=wrap;html=1;" vertex="1" parent="1">
          <mxGeometry x="-299" y="157" width="197" height="21" as="geometry" />
        </mxCell>
        <mxCell id="GZttbLxg8JypA5IhUF5--34" value="" style="rounded=0;whiteSpace=wrap;html=1;" vertex="1" parent="1">
          <mxGeometry x="-102" y="157" width="77" height="21" as="geometry" />
        </mxCell>
        <mxCell id="GZttbLxg8JypA5IhUF5--35" value="" style="rounded=0;whiteSpace=wrap;html=1;" vertex="1" parent="1">
          <mxGeometry x="-25" y="157" width="66" height="21" as="geometry" />
        </mxCell>
        <mxCell id="GZttbLxg8JypA5IhUF5--36" value="" style="rounded=0;whiteSpace=wrap;html=1;" vertex="1" parent="1">
          <mxGeometry x="41" y="157" width="71" height="21" as="geometry" />
        </mxCell>
        <mxCell id="GZttbLxg8JypA5IhUF5--37" value="&lt;div align=&quot;left&quot;&gt;&lt;b&gt;2ο Παραδοτέο&lt;/b&gt;&lt;br&gt;&lt;/div&gt;" style="rounded=0;whiteSpace=wrap;html=1;align=left;" vertex="1" parent="1">
          <mxGeometry x="-299" y="178" width="197" height="21" as="geometry" />
        </mxCell>
        <mxCell id="GZttbLxg8JypA5IhUF5--38" value="8/4/2024" style="rounded=0;whiteSpace=wrap;html=1;" vertex="1" parent="1">
          <mxGeometry x="-102" y="178" width="77" height="21" as="geometry" />
        </mxCell>
        <mxCell id="GZttbLxg8JypA5IhUF5--39" value="28/4/2024" style="rounded=0;whiteSpace=wrap;html=1;" vertex="1" parent="1">
          <mxGeometry x="-25" y="178" width="66" height="21" as="geometry" />
        </mxCell>
        <mxCell id="GZttbLxg8JypA5IhUF5--40" value="20" style="rounded=0;whiteSpace=wrap;html=1;" vertex="1" parent="1">
          <mxGeometry x="41" y="178" width="71" height="21" as="geometry" />
        </mxCell>
        <mxCell id="GZttbLxg8JypA5IhUF5--41" value="&lt;div align=&quot;left&quot;&gt;Robustness Diagrams v0.1&lt;/div&gt;" style="rounded=0;whiteSpace=wrap;html=1;align=left;" vertex="1" parent="1">
          <mxGeometry x="-299" y="220" width="197" height="21" as="geometry" />
        </mxCell>
        <mxCell id="GZttbLxg8JypA5IhUF5--42" value="11/4/2024" style="rounded=0;whiteSpace=wrap;html=1;" vertex="1" parent="1">
          <mxGeometry x="-102" y="220" width="77" height="21" as="geometry" />
        </mxCell>
        <mxCell id="GZttbLxg8JypA5IhUF5--43" value="17/4/2024" style="rounded=0;whiteSpace=wrap;html=1;" vertex="1" parent="1">
          <mxGeometry x="-25" y="220" width="66" height="21" as="geometry" />
        </mxCell>
        <mxCell id="GZttbLxg8JypA5IhUF5--44" value="7" style="rounded=0;whiteSpace=wrap;html=1;" vertex="1" parent="1">
          <mxGeometry x="41" y="220" width="71" height="21" as="geometry" />
        </mxCell>
        <mxCell id="GZttbLxg8JypA5IhUF5--45" value="&lt;div align=&quot;left&quot;&gt;Sequence Diagrams v0.1&lt;/div&gt;" style="rounded=0;whiteSpace=wrap;html=1;align=left;" vertex="1" parent="1">
          <mxGeometry x="-299" y="241" width="197" height="21" as="geometry" />
        </mxCell>
        <mxCell id="GZttbLxg8JypA5IhUF5--46" value="18/4/2024" style="rounded=0;whiteSpace=wrap;html=1;" vertex="1" parent="1">
          <mxGeometry x="-102" y="241" width="77" height="21" as="geometry" />
        </mxCell>
        <mxCell id="GZttbLxg8JypA5IhUF5--47" value="24/4/2024" style="rounded=0;whiteSpace=wrap;html=1;" vertex="1" parent="1">
          <mxGeometry x="-25" y="241" width="66" height="21" as="geometry" />
        </mxCell>
        <mxCell id="GZttbLxg8JypA5IhUF5--48" value="7" style="rounded=0;whiteSpace=wrap;html=1;" vertex="1" parent="1">
          <mxGeometry x="41" y="241" width="71" height="21" as="geometry" />
        </mxCell>
        <mxCell id="GZttbLxg8JypA5IhUF5--49" value="&lt;div align=&quot;left&quot;&gt;Use Cases v0.2&lt;/div&gt;" style="rounded=0;whiteSpace=wrap;html=1;align=left;" vertex="1" parent="1">
          <mxGeometry x="-299" y="199" width="197" height="21" as="geometry" />
        </mxCell>
        <mxCell id="GZttbLxg8JypA5IhUF5--50" value="8/4/2024" style="rounded=0;whiteSpace=wrap;html=1;" vertex="1" parent="1">
          <mxGeometry x="-102" y="199" width="77" height="21" as="geometry" />
        </mxCell>
        <mxCell id="GZttbLxg8JypA5IhUF5--51" value="10/4/2024" style="rounded=0;whiteSpace=wrap;html=1;" vertex="1" parent="1">
          <mxGeometry x="-25" y="199" width="66" height="21" as="geometry" />
        </mxCell>
        <mxCell id="GZttbLxg8JypA5IhUF5--52" value="3" style="rounded=0;whiteSpace=wrap;html=1;" vertex="1" parent="1">
          <mxGeometry x="41" y="199" width="71" height="21" as="geometry" />
        </mxCell>
        <mxCell id="GZttbLxg8JypA5IhUF5--53" value="&lt;div align=&quot;left&quot;&gt;Domain Model v0.2&lt;/div&gt;" style="rounded=0;whiteSpace=wrap;html=1;align=left;" vertex="1" parent="1">
          <mxGeometry x="-299" y="262" width="197" height="21" as="geometry" />
        </mxCell>
        <mxCell id="GZttbLxg8JypA5IhUF5--54" value="25/4/2024" style="rounded=0;whiteSpace=wrap;html=1;" vertex="1" parent="1">
          <mxGeometry x="-102" y="262" width="77" height="21" as="geometry" />
        </mxCell>
        <mxCell id="GZttbLxg8JypA5IhUF5--55" value="27/4/2024" style="rounded=0;whiteSpace=wrap;html=1;" vertex="1" parent="1">
          <mxGeometry x="-25" y="262" width="66" height="21" as="geometry" />
        </mxCell>
        <mxCell id="GZttbLxg8JypA5IhUF5--56" value="3" style="rounded=0;whiteSpace=wrap;html=1;" vertex="1" parent="1">
          <mxGeometry x="41" y="262" width="71" height="21" as="geometry" />
        </mxCell>
        <mxCell id="GZttbLxg8JypA5IhUF5--57" value="&lt;div align=&quot;left&quot;&gt;2o Παραδοτέο&lt;/div&gt;" style="rounded=0;whiteSpace=wrap;html=1;align=left;" vertex="1" parent="1">
          <mxGeometry x="-299" y="283" width="197" height="21" as="geometry" />
        </mxCell>
        <mxCell id="GZttbLxg8JypA5IhUF5--58" value="28/4/2024" style="rounded=0;whiteSpace=wrap;html=1;" vertex="1" parent="1">
          <mxGeometry x="-102" y="283" width="77" height="21" as="geometry" />
        </mxCell>
        <mxCell id="GZttbLxg8JypA5IhUF5--59" value="28/4/2024" style="rounded=0;whiteSpace=wrap;html=1;" vertex="1" parent="1">
          <mxGeometry x="-25" y="283" width="66" height="21" as="geometry" />
        </mxCell>
        <mxCell id="GZttbLxg8JypA5IhUF5--60" value="1" style="rounded=0;whiteSpace=wrap;html=1;" vertex="1" parent="1">
          <mxGeometry x="41" y="283" width="71" height="21" as="geometry" />
        </mxCell>
        <mxCell id="GZttbLxg8JypA5IhUF5--61" value="" style="rounded=0;whiteSpace=wrap;html=1;" vertex="1" parent="1">
          <mxGeometry x="112" y="10" width="965" height="21" as="geometry" />
        </mxCell>
        <mxCell id="GZttbLxg8JypA5IhUF5--62" value="" style="rounded=0;whiteSpace=wrap;html=1;" vertex="1" parent="1">
          <mxGeometry x="112" y="31" width="965" height="21" as="geometry" />
        </mxCell>
        <mxCell id="GZttbLxg8JypA5IhUF5--63" value="" style="rounded=0;whiteSpace=wrap;html=1;" vertex="1" parent="1">
          <mxGeometry x="112" y="52" width="965" height="21" as="geometry" />
        </mxCell>
        <mxCell id="GZttbLxg8JypA5IhUF5--64" value="" style="rounded=0;whiteSpace=wrap;html=1;" vertex="1" parent="1">
          <mxGeometry x="112" y="73" width="965" height="21" as="geometry" />
        </mxCell>
        <mxCell id="GZttbLxg8JypA5IhUF5--65" value="" style="rounded=0;whiteSpace=wrap;html=1;" vertex="1" parent="1">
          <mxGeometry x="112" y="94" width="965" height="21" as="geometry" />
        </mxCell>
        <mxCell id="GZttbLxg8JypA5IhUF5--66" value="" style="rounded=0;whiteSpace=wrap;html=1;" vertex="1" parent="1">
          <mxGeometry x="112" y="115" width="965" height="21" as="geometry" />
        </mxCell>
        <mxCell id="GZttbLxg8JypA5IhUF5--67" value="" style="rounded=0;whiteSpace=wrap;html=1;" vertex="1" parent="1">
          <mxGeometry x="112" y="136" width="965" height="21" as="geometry" />
        </mxCell>
        <mxCell id="GZttbLxg8JypA5IhUF5--68" value="" style="rounded=0;whiteSpace=wrap;html=1;" vertex="1" parent="1">
          <mxGeometry x="112" y="157" width="965" height="21" as="geometry" />
        </mxCell>
        <mxCell id="GZttbLxg8JypA5IhUF5--69" value="" style="rounded=0;whiteSpace=wrap;html=1;" vertex="1" parent="1">
          <mxGeometry x="112" y="178" width="965" height="21" as="geometry" />
        </mxCell>
        <mxCell id="GZttbLxg8JypA5IhUF5--70" value="" style="rounded=0;whiteSpace=wrap;html=1;" vertex="1" parent="1">
          <mxGeometry x="112" y="220" width="965" height="21" as="geometry" />
        </mxCell>
        <mxCell id="GZttbLxg8JypA5IhUF5--71" value="" style="rounded=0;whiteSpace=wrap;html=1;" vertex="1" parent="1">
          <mxGeometry x="112" y="241" width="965" height="21" as="geometry" />
        </mxCell>
        <mxCell id="GZttbLxg8JypA5IhUF5--72" value="" style="rounded=0;whiteSpace=wrap;html=1;" vertex="1" parent="1">
          <mxGeometry x="112" y="199" width="965" height="21" as="geometry" />
        </mxCell>
        <mxCell id="GZttbLxg8JypA5IhUF5--73" value="" style="rounded=0;whiteSpace=wrap;html=1;" vertex="1" parent="1">
          <mxGeometry x="112" y="262" width="965" height="21" as="geometry" />
        </mxCell>
        <mxCell id="GZttbLxg8JypA5IhUF5--74" value="" style="rounded=0;whiteSpace=wrap;html=1;" vertex="1" parent="1">
          <mxGeometry x="112" y="283" width="965" height="21" as="geometry" />
        </mxCell>
        <mxCell id="GZttbLxg8JypA5IhUF5--75" value="" style="rounded=0;whiteSpace=wrap;html=1;" vertex="1" parent="1">
          <mxGeometry x="-299" y="304" width="197" height="21" as="geometry" />
        </mxCell>
        <mxCell id="GZttbLxg8JypA5IhUF5--76" value="" style="rounded=0;whiteSpace=wrap;html=1;" vertex="1" parent="1">
          <mxGeometry x="-102" y="304" width="77" height="21" as="geometry" />
        </mxCell>
        <mxCell id="GZttbLxg8JypA5IhUF5--77" value="" style="rounded=0;whiteSpace=wrap;html=1;" vertex="1" parent="1">
          <mxGeometry x="-25" y="304" width="66" height="21" as="geometry" />
        </mxCell>
        <mxCell id="GZttbLxg8JypA5IhUF5--78" value="" style="rounded=0;whiteSpace=wrap;html=1;" vertex="1" parent="1">
          <mxGeometry x="41" y="304" width="71" height="21" as="geometry" />
        </mxCell>
        <mxCell id="GZttbLxg8JypA5IhUF5--79" value="" style="rounded=0;whiteSpace=wrap;html=1;" vertex="1" parent="1">
          <mxGeometry x="112" y="304" width="965" height="21" as="geometry" />
        </mxCell>
        <mxCell id="GZttbLxg8JypA5IhUF5--80" value="&lt;div align=&quot;left&quot;&gt;&lt;b&gt;3ο Παραδοτέο&lt;/b&gt;&lt;/div&gt;" style="rounded=0;whiteSpace=wrap;html=1;align=left;" vertex="1" parent="1">
          <mxGeometry x="-299" y="325" width="197" height="21" as="geometry" />
        </mxCell>
        <mxCell id="GZttbLxg8JypA5IhUF5--81" value="29/4/2024" style="rounded=0;whiteSpace=wrap;html=1;" vertex="1" parent="1">
          <mxGeometry x="-102" y="325" width="77" height="21" as="geometry" />
        </mxCell>
        <mxCell id="GZttbLxg8JypA5IhUF5--82" value="26/5/2024" style="rounded=0;whiteSpace=wrap;html=1;" vertex="1" parent="1">
          <mxGeometry x="-25" y="325" width="66" height="21" as="geometry" />
        </mxCell>
        <mxCell id="GZttbLxg8JypA5IhUF5--83" value="28" style="rounded=0;whiteSpace=wrap;html=1;" vertex="1" parent="1">
          <mxGeometry x="41" y="325" width="71" height="21" as="geometry" />
        </mxCell>
        <mxCell id="GZttbLxg8JypA5IhUF5--84" value="" style="rounded=0;whiteSpace=wrap;html=1;" vertex="1" parent="1">
          <mxGeometry x="112" y="325" width="965" height="21" as="geometry" />
        </mxCell>
        <mxCell id="GZttbLxg8JypA5IhUF5--85" value="&lt;div align=&quot;left&quot;&gt;Class Diagram v0.1&lt;/div&gt;" style="rounded=0;whiteSpace=wrap;html=1;align=left;" vertex="1" parent="1">
          <mxGeometry x="-299" y="451" width="197" height="21" as="geometry" />
        </mxCell>
        <mxCell id="GZttbLxg8JypA5IhUF5--86" value="12/5/2024" style="rounded=0;whiteSpace=wrap;html=1;" vertex="1" parent="1">
          <mxGeometry x="-102" y="451" width="77" height="21" as="geometry" />
        </mxCell>
        <mxCell id="GZttbLxg8JypA5IhUF5--87" value="13/5/2024" style="rounded=0;whiteSpace=wrap;html=1;" vertex="1" parent="1">
          <mxGeometry x="-25" y="451" width="66" height="21" as="geometry" />
        </mxCell>
        <mxCell id="GZttbLxg8JypA5IhUF5--88" value="2" style="rounded=0;whiteSpace=wrap;html=1;" vertex="1" parent="1">
          <mxGeometry x="41" y="451" width="71" height="21" as="geometry" />
        </mxCell>
        <mxCell id="GZttbLxg8JypA5IhUF5--89" value="" style="rounded=0;whiteSpace=wrap;html=1;" vertex="1" parent="1">
          <mxGeometry x="112" y="451" width="965" height="21" as="geometry" />
        </mxCell>
        <mxCell id="GZttbLxg8JypA5IhUF5--90" value="&lt;div align=&quot;left&quot;&gt;Project Code v0.1&lt;/div&gt;" style="rounded=0;whiteSpace=wrap;html=1;align=left;" vertex="1" parent="1">
          <mxGeometry x="-299" y="472" width="197" height="21" as="geometry" />
        </mxCell>
        <mxCell id="GZttbLxg8JypA5IhUF5--91" value="14/5/2024" style="rounded=0;whiteSpace=wrap;html=1;" vertex="1" parent="1">
          <mxGeometry x="-102" y="472" width="77" height="21" as="geometry" />
        </mxCell>
        <mxCell id="GZttbLxg8JypA5IhUF5--92" value="26/5/2024" style="rounded=0;whiteSpace=wrap;html=1;" vertex="1" parent="1">
          <mxGeometry x="-25" y="472" width="66" height="21" as="geometry" />
        </mxCell>
        <mxCell id="GZttbLxg8JypA5IhUF5--93" value="13" style="rounded=0;whiteSpace=wrap;html=1;" vertex="1" parent="1">
          <mxGeometry x="41" y="472" width="71" height="21" as="geometry" />
        </mxCell>
        <mxCell id="GZttbLxg8JypA5IhUF5--94" value="" style="rounded=0;whiteSpace=wrap;html=1;" vertex="1" parent="1">
          <mxGeometry x="112" y="472" width="965" height="21" as="geometry" />
        </mxCell>
        <mxCell id="GZttbLxg8JypA5IhUF5--95" value="Team Plan v0.2" style="rounded=0;whiteSpace=wrap;html=1;align=left;" vertex="1" parent="1">
          <mxGeometry x="-299" y="346" width="197" height="21" as="geometry" />
        </mxCell>
        <mxCell id="GZttbLxg8JypA5IhUF5--96" value="29/4/2024" style="rounded=0;whiteSpace=wrap;html=1;" vertex="1" parent="1">
          <mxGeometry x="-102" y="346" width="77" height="21" as="geometry" />
        </mxCell>
        <mxCell id="GZttbLxg8JypA5IhUF5--97" value="29/4/2024" style="rounded=0;whiteSpace=wrap;html=1;" vertex="1" parent="1">
          <mxGeometry x="-25" y="346" width="66" height="21" as="geometry" />
        </mxCell>
        <mxCell id="GZttbLxg8JypA5IhUF5--98" value="1" style="rounded=0;whiteSpace=wrap;html=1;" vertex="1" parent="1">
          <mxGeometry x="41" y="346" width="71" height="21" as="geometry" />
        </mxCell>
        <mxCell id="GZttbLxg8JypA5IhUF5--99" value="" style="rounded=0;whiteSpace=wrap;html=1;" vertex="1" parent="1">
          <mxGeometry x="112" y="346" width="965" height="21" as="geometry" />
        </mxCell>
        <mxCell id="GZttbLxg8JypA5IhUF5--100" value="&lt;div align=&quot;left&quot;&gt;&lt;b&gt;1o Παραδοτέο&lt;/b&gt;&lt;/div&gt;" style="rounded=0;whiteSpace=wrap;html=1;align=left;" vertex="1" parent="1">
          <mxGeometry x="-299" y="-11" width="197" height="21" as="geometry" />
        </mxCell>
        <mxCell id="GZttbLxg8JypA5IhUF5--101" value="28/2/2024" style="rounded=0;whiteSpace=wrap;html=1;" vertex="1" parent="1">
          <mxGeometry x="-102" y="-11" width="77" height="21" as="geometry" />
        </mxCell>
        <mxCell id="GZttbLxg8JypA5IhUF5--102" value="7/4/2024" style="rounded=0;whiteSpace=wrap;html=1;" vertex="1" parent="1">
          <mxGeometry x="-25" y="-11" width="66" height="21" as="geometry" />
        </mxCell>
        <mxCell id="GZttbLxg8JypA5IhUF5--103" value="40" style="rounded=0;whiteSpace=wrap;html=1;" vertex="1" parent="1">
          <mxGeometry x="41" y="-11" width="71" height="21" as="geometry" />
        </mxCell>
        <mxCell id="GZttbLxg8JypA5IhUF5--104" value="" style="rounded=0;whiteSpace=wrap;html=1;" vertex="1" parent="1">
          <mxGeometry x="112" y="-11" width="965" height="21" as="geometry" />
        </mxCell>
        <mxCell id="GZttbLxg8JypA5IhUF5--105" value="&lt;div align=&quot;left&quot;&gt;3o Παραδοτέο&lt;/div&gt;" style="rounded=0;whiteSpace=wrap;html=1;align=left;" vertex="1" parent="1">
          <mxGeometry x="-299" y="493.5" width="197" height="21" as="geometry" />
        </mxCell>
        <mxCell id="GZttbLxg8JypA5IhUF5--106" value="26/5/2024" style="rounded=0;whiteSpace=wrap;html=1;" vertex="1" parent="1">
          <mxGeometry x="-102" y="493.5" width="77" height="21" as="geometry" />
        </mxCell>
        <mxCell id="GZttbLxg8JypA5IhUF5--107" value="26/5/2024" style="rounded=0;whiteSpace=wrap;html=1;" vertex="1" parent="1">
          <mxGeometry x="-25" y="493.5" width="66" height="21" as="geometry" />
        </mxCell>
        <mxCell id="GZttbLxg8JypA5IhUF5--108" value="1" style="rounded=0;whiteSpace=wrap;html=1;" vertex="1" parent="1">
          <mxGeometry x="41" y="493.5" width="71" height="21" as="geometry" />
        </mxCell>
        <mxCell id="GZttbLxg8JypA5IhUF5--109" value="" style="rounded=0;whiteSpace=wrap;html=1;" vertex="1" parent="1">
          <mxGeometry x="112" y="493.5" width="965" height="21" as="geometry" />
        </mxCell>
        <mxCell id="GZttbLxg8JypA5IhUF5--110" value="" style="rounded=0;whiteSpace=wrap;html=1;" vertex="1" parent="1">
          <mxGeometry x="-299" y="514.5" width="197" height="21" as="geometry" />
        </mxCell>
        <mxCell id="GZttbLxg8JypA5IhUF5--111" value="" style="rounded=0;whiteSpace=wrap;html=1;" vertex="1" parent="1">
          <mxGeometry x="-102" y="514.5" width="77" height="21" as="geometry" />
        </mxCell>
        <mxCell id="GZttbLxg8JypA5IhUF5--112" value="" style="rounded=0;whiteSpace=wrap;html=1;" vertex="1" parent="1">
          <mxGeometry x="-25" y="514.5" width="66" height="21" as="geometry" />
        </mxCell>
        <mxCell id="GZttbLxg8JypA5IhUF5--113" value="" style="rounded=0;whiteSpace=wrap;html=1;" vertex="1" parent="1">
          <mxGeometry x="41" y="514.5" width="71" height="21" as="geometry" />
        </mxCell>
        <mxCell id="GZttbLxg8JypA5IhUF5--114" value="" style="rounded=0;whiteSpace=wrap;html=1;" vertex="1" parent="1">
          <mxGeometry x="112" y="514.5" width="965" height="21" as="geometry" />
        </mxCell>
        <mxCell id="GZttbLxg8JypA5IhUF5--115" value="&lt;div align=&quot;left&quot;&gt;&lt;b&gt;4ο Παραδοτέο&lt;/b&gt;&lt;br&gt;&lt;/div&gt;" style="rounded=0;whiteSpace=wrap;html=1;align=left;" vertex="1" parent="1">
          <mxGeometry x="-299" y="535.5" width="197" height="21" as="geometry" />
        </mxCell>
        <mxCell id="GZttbLxg8JypA5IhUF5--116" value="27/5/2024" style="rounded=0;whiteSpace=wrap;html=1;" vertex="1" parent="1">
          <mxGeometry x="-102" y="535.5" width="77" height="21" as="geometry" />
        </mxCell>
        <mxCell id="GZttbLxg8JypA5IhUF5--117" value="2/6/2024" style="rounded=0;whiteSpace=wrap;html=1;" vertex="1" parent="1">
          <mxGeometry x="-25" y="535.5" width="66" height="21" as="geometry" />
        </mxCell>
        <mxCell id="GZttbLxg8JypA5IhUF5--118" value="7" style="rounded=0;whiteSpace=wrap;html=1;" vertex="1" parent="1">
          <mxGeometry x="41" y="535.5" width="71" height="21" as="geometry" />
        </mxCell>
        <mxCell id="GZttbLxg8JypA5IhUF5--119" value="" style="rounded=0;whiteSpace=wrap;html=1;" vertex="1" parent="1">
          <mxGeometry x="112" y="535.5" width="965" height="21" as="geometry" />
        </mxCell>
        <mxCell id="GZttbLxg8JypA5IhUF5--120" value="&lt;div align=&quot;left&quot;&gt;Project Description v1.0&lt;/div&gt;" style="rounded=0;whiteSpace=wrap;html=1;align=left;" vertex="1" parent="1">
          <mxGeometry x="-299" y="556.5" width="197" height="21" as="geometry" />
        </mxCell>
        <mxCell id="GZttbLxg8JypA5IhUF5--121" value="27/5/2024" style="rounded=0;whiteSpace=wrap;html=1;" vertex="1" parent="1">
          <mxGeometry x="-102" y="556.5" width="77" height="21" as="geometry" />
        </mxCell>
        <mxCell id="GZttbLxg8JypA5IhUF5--122" value="27/5/2024" style="rounded=0;whiteSpace=wrap;html=1;" vertex="1" parent="1">
          <mxGeometry x="-25" y="556.5" width="66" height="21" as="geometry" />
        </mxCell>
        <mxCell id="GZttbLxg8JypA5IhUF5--123" value="1" style="rounded=0;whiteSpace=wrap;html=1;" vertex="1" parent="1">
          <mxGeometry x="41" y="556.5" width="71" height="21" as="geometry" />
        </mxCell>
        <mxCell id="GZttbLxg8JypA5IhUF5--124" value="" style="rounded=0;whiteSpace=wrap;html=1;" vertex="1" parent="1">
          <mxGeometry x="112" y="556.5" width="965" height="21" as="geometry" />
        </mxCell>
        <mxCell id="GZttbLxg8JypA5IhUF5--125" value="&lt;div align=&quot;left&quot;&gt;Project Plan v1.0&lt;/div&gt;" style="rounded=0;whiteSpace=wrap;html=1;align=left;" vertex="1" parent="1">
          <mxGeometry x="-299" y="577.5" width="197" height="21" as="geometry" />
        </mxCell>
        <mxCell id="GZttbLxg8JypA5IhUF5--126" value="28/5/2024" style="rounded=0;whiteSpace=wrap;html=1;" vertex="1" parent="1">
          <mxGeometry x="-102" y="577.5" width="77" height="21" as="geometry" />
        </mxCell>
        <mxCell id="GZttbLxg8JypA5IhUF5--127" value="28/5/2024" style="rounded=0;whiteSpace=wrap;html=1;" vertex="1" parent="1">
          <mxGeometry x="-25" y="577.5" width="66" height="21" as="geometry" />
        </mxCell>
        <mxCell id="GZttbLxg8JypA5IhUF5--128" value="1" style="rounded=0;whiteSpace=wrap;html=1;" vertex="1" parent="1">
          <mxGeometry x="41" y="577.5" width="71" height="21" as="geometry" />
        </mxCell>
        <mxCell id="GZttbLxg8JypA5IhUF5--129" value="" style="rounded=0;whiteSpace=wrap;html=1;" vertex="1" parent="1">
          <mxGeometry x="112" y="577.5" width="965" height="21" as="geometry" />
        </mxCell>
        <mxCell id="GZttbLxg8JypA5IhUF5--130" value="&lt;div align=&quot;left&quot;&gt;Team Plan v1.0&lt;/div&gt;" style="rounded=0;whiteSpace=wrap;html=1;align=left;" vertex="1" parent="1">
          <mxGeometry x="-299" y="598.5" width="197" height="21" as="geometry" />
        </mxCell>
        <mxCell id="GZttbLxg8JypA5IhUF5--131" value="28/5/2024" style="rounded=0;whiteSpace=wrap;html=1;" vertex="1" parent="1">
          <mxGeometry x="-102" y="598.5" width="77" height="21" as="geometry" />
        </mxCell>
        <mxCell id="GZttbLxg8JypA5IhUF5--132" value="28/5/2024" style="rounded=0;whiteSpace=wrap;html=1;" vertex="1" parent="1">
          <mxGeometry x="-25" y="598.5" width="66" height="21" as="geometry" />
        </mxCell>
        <mxCell id="GZttbLxg8JypA5IhUF5--133" value="1" style="rounded=0;whiteSpace=wrap;html=1;" vertex="1" parent="1">
          <mxGeometry x="41" y="598.5" width="71" height="21" as="geometry" />
        </mxCell>
        <mxCell id="GZttbLxg8JypA5IhUF5--134" value="" style="rounded=0;whiteSpace=wrap;html=1;" vertex="1" parent="1">
          <mxGeometry x="112" y="598.5" width="965" height="21" as="geometry" />
        </mxCell>
        <mxCell id="GZttbLxg8JypA5IhUF5--135" value="&lt;div align=&quot;left&quot;&gt;Risk Assessment v1.0&lt;/div&gt;" style="rounded=0;whiteSpace=wrap;html=1;align=left;" vertex="1" parent="1">
          <mxGeometry x="-299" y="619.5" width="197" height="21" as="geometry" />
        </mxCell>
        <mxCell id="GZttbLxg8JypA5IhUF5--136" value="28/5/2024" style="rounded=0;whiteSpace=wrap;html=1;" vertex="1" parent="1">
          <mxGeometry x="-102" y="619.5" width="77" height="21" as="geometry" />
        </mxCell>
        <mxCell id="GZttbLxg8JypA5IhUF5--137" value="28/5/2024" style="rounded=0;whiteSpace=wrap;html=1;" vertex="1" parent="1">
          <mxGeometry x="-25" y="619.5" width="66" height="21" as="geometry" />
        </mxCell>
        <mxCell id="GZttbLxg8JypA5IhUF5--138" value="1" style="rounded=0;whiteSpace=wrap;html=1;" vertex="1" parent="1">
          <mxGeometry x="41" y="619.5" width="71" height="21" as="geometry" />
        </mxCell>
        <mxCell id="GZttbLxg8JypA5IhUF5--139" value="" style="rounded=0;whiteSpace=wrap;html=1;" vertex="1" parent="1">
          <mxGeometry x="112" y="619.5" width="965" height="21" as="geometry" />
        </mxCell>
        <mxCell id="GZttbLxg8JypA5IhUF5--140" value="&lt;div align=&quot;left&quot;&gt;Use Cases v1.0&lt;/div&gt;" style="rounded=0;whiteSpace=wrap;html=1;align=left;" vertex="1" parent="1">
          <mxGeometry x="-299" y="640.5" width="197" height="21" as="geometry" />
        </mxCell>
        <mxCell id="GZttbLxg8JypA5IhUF5--141" value="29/5/2024" style="rounded=0;whiteSpace=wrap;html=1;" vertex="1" parent="1">
          <mxGeometry x="-102" y="640.5" width="77" height="21" as="geometry" />
        </mxCell>
        <mxCell id="GZttbLxg8JypA5IhUF5--142" value="29/5/2024" style="rounded=0;whiteSpace=wrap;html=1;" vertex="1" parent="1">
          <mxGeometry x="-25" y="640.5" width="66" height="21" as="geometry" />
        </mxCell>
        <mxCell id="GZttbLxg8JypA5IhUF5--143" value="1" style="rounded=0;whiteSpace=wrap;html=1;" vertex="1" parent="1">
          <mxGeometry x="41" y="640.5" width="71" height="21" as="geometry" />
        </mxCell>
        <mxCell id="GZttbLxg8JypA5IhUF5--144" value="" style="rounded=0;whiteSpace=wrap;html=1;" vertex="1" parent="1">
          <mxGeometry x="112" y="640.5" width="965" height="21" as="geometry" />
        </mxCell>
        <mxCell id="GZttbLxg8JypA5IhUF5--145" value="&lt;div align=&quot;left&quot;&gt;Robustness Diagrams v1.0&lt;/div&gt;" style="rounded=0;whiteSpace=wrap;html=1;align=left;" vertex="1" parent="1">
          <mxGeometry x="-299" y="661.5" width="197" height="21" as="geometry" />
        </mxCell>
        <mxCell id="GZttbLxg8JypA5IhUF5--146" value="30/5/2024" style="rounded=0;whiteSpace=wrap;html=1;" vertex="1" parent="1">
          <mxGeometry x="-102" y="661.5" width="77" height="21" as="geometry" />
        </mxCell>
        <mxCell id="GZttbLxg8JypA5IhUF5--147" value="30/5/2024" style="rounded=0;whiteSpace=wrap;html=1;" vertex="1" parent="1">
          <mxGeometry x="-25" y="661.5" width="66" height="21" as="geometry" />
        </mxCell>
        <mxCell id="GZttbLxg8JypA5IhUF5--148" value="1" style="rounded=0;whiteSpace=wrap;html=1;" vertex="1" parent="1">
          <mxGeometry x="41" y="661.5" width="71" height="21" as="geometry" />
        </mxCell>
        <mxCell id="GZttbLxg8JypA5IhUF5--149" value="" style="rounded=0;whiteSpace=wrap;html=1;" vertex="1" parent="1">
          <mxGeometry x="112" y="661.5" width="965" height="21" as="geometry" />
        </mxCell>
        <mxCell id="GZttbLxg8JypA5IhUF5--150" value="&lt;div align=&quot;left&quot;&gt;Sequence Diagrams v1.0&lt;/div&gt;" style="rounded=0;whiteSpace=wrap;html=1;align=left;" vertex="1" parent="1">
          <mxGeometry x="-299" y="682.5" width="197" height="21" as="geometry" />
        </mxCell>
        <mxCell id="GZttbLxg8JypA5IhUF5--151" value="31/5/2024" style="rounded=0;whiteSpace=wrap;html=1;" vertex="1" parent="1">
          <mxGeometry x="-102" y="682.5" width="77" height="21" as="geometry" />
        </mxCell>
        <mxCell id="GZttbLxg8JypA5IhUF5--152" value="31/5/2024" style="rounded=0;whiteSpace=wrap;html=1;" vertex="1" parent="1">
          <mxGeometry x="-25" y="682.5" width="66" height="21" as="geometry" />
        </mxCell>
        <mxCell id="GZttbLxg8JypA5IhUF5--153" value="1" style="rounded=0;whiteSpace=wrap;html=1;" vertex="1" parent="1">
          <mxGeometry x="41" y="682.5" width="71" height="21" as="geometry" />
        </mxCell>
        <mxCell id="GZttbLxg8JypA5IhUF5--154" value="" style="rounded=0;whiteSpace=wrap;html=1;" vertex="1" parent="1">
          <mxGeometry x="112" y="682.5" width="965" height="21" as="geometry" />
        </mxCell>
        <mxCell id="GZttbLxg8JypA5IhUF5--155" value="&lt;div align=&quot;left&quot;&gt;Domain Model v1.0&lt;/div&gt;" style="rounded=0;whiteSpace=wrap;html=1;align=left;" vertex="1" parent="1">
          <mxGeometry x="-299" y="703.5" width="197" height="21" as="geometry" />
        </mxCell>
        <mxCell id="GZttbLxg8JypA5IhUF5--156" value="1/6/2024" style="rounded=0;whiteSpace=wrap;html=1;" vertex="1" parent="1">
          <mxGeometry x="-102" y="703.5" width="77" height="21" as="geometry" />
        </mxCell>
        <mxCell id="GZttbLxg8JypA5IhUF5--157" value="1/6/2024" style="rounded=0;whiteSpace=wrap;html=1;" vertex="1" parent="1">
          <mxGeometry x="-25" y="703.5" width="66" height="21" as="geometry" />
        </mxCell>
        <mxCell id="GZttbLxg8JypA5IhUF5--158" value="1" style="rounded=0;whiteSpace=wrap;html=1;" vertex="1" parent="1">
          <mxGeometry x="41" y="703.5" width="71" height="21" as="geometry" />
        </mxCell>
        <mxCell id="GZttbLxg8JypA5IhUF5--159" value="" style="rounded=0;whiteSpace=wrap;html=1;" vertex="1" parent="1">
          <mxGeometry x="112" y="703.5" width="965" height="21" as="geometry" />
        </mxCell>
        <mxCell id="GZttbLxg8JypA5IhUF5--160" value="&lt;div align=&quot;left&quot;&gt;Class Diagram v1.0&lt;/div&gt;" style="rounded=0;whiteSpace=wrap;html=1;align=left;" vertex="1" parent="1">
          <mxGeometry x="-299" y="724.5" width="197" height="21" as="geometry" />
        </mxCell>
        <mxCell id="GZttbLxg8JypA5IhUF5--161" value="1/6/2024" style="rounded=0;whiteSpace=wrap;html=1;" vertex="1" parent="1">
          <mxGeometry x="-102" y="724.5" width="77" height="21" as="geometry" />
        </mxCell>
        <mxCell id="GZttbLxg8JypA5IhUF5--162" value="1/6/2024" style="rounded=0;whiteSpace=wrap;html=1;" vertex="1" parent="1">
          <mxGeometry x="-25" y="724.5" width="66" height="21" as="geometry" />
        </mxCell>
        <mxCell id="GZttbLxg8JypA5IhUF5--163" value="1" style="rounded=0;whiteSpace=wrap;html=1;" vertex="1" parent="1">
          <mxGeometry x="41" y="724.5" width="71" height="21" as="geometry" />
        </mxCell>
        <mxCell id="GZttbLxg8JypA5IhUF5--164" value="" style="rounded=0;whiteSpace=wrap;html=1;" vertex="1" parent="1">
          <mxGeometry x="112" y="724.5" width="965" height="21" as="geometry" />
        </mxCell>
        <mxCell id="GZttbLxg8JypA5IhUF5--165" value="&lt;div align=&quot;left&quot;&gt;Project Code v1.0&lt;/div&gt;" style="rounded=0;whiteSpace=wrap;html=1;align=left;" vertex="1" parent="1">
          <mxGeometry x="-299" y="745.5" width="197" height="21" as="geometry" />
        </mxCell>
        <mxCell id="GZttbLxg8JypA5IhUF5--166" value="2/6/2024" style="rounded=0;whiteSpace=wrap;html=1;" vertex="1" parent="1">
          <mxGeometry x="-102" y="745.5" width="77" height="21" as="geometry" />
        </mxCell>
        <mxCell id="GZttbLxg8JypA5IhUF5--167" value="2/6/2024" style="rounded=0;whiteSpace=wrap;html=1;" vertex="1" parent="1">
          <mxGeometry x="-25" y="745.5" width="66" height="21" as="geometry" />
        </mxCell>
        <mxCell id="GZttbLxg8JypA5IhUF5--168" value="1" style="rounded=0;whiteSpace=wrap;html=1;" vertex="1" parent="1">
          <mxGeometry x="41" y="745.5" width="71" height="21" as="geometry" />
        </mxCell>
        <mxCell id="GZttbLxg8JypA5IhUF5--169" value="" style="rounded=0;whiteSpace=wrap;html=1;" vertex="1" parent="1">
          <mxGeometry x="112" y="745.5" width="965" height="21" as="geometry" />
        </mxCell>
        <mxCell id="GZttbLxg8JypA5IhUF5--170" value="&lt;div align=&quot;left&quot;&gt;4o Παραδοτέο&lt;/div&gt;" style="rounded=0;whiteSpace=wrap;html=1;align=left;" vertex="1" parent="1">
          <mxGeometry x="-299" y="766.5" width="197" height="21" as="geometry" />
        </mxCell>
        <mxCell id="GZttbLxg8JypA5IhUF5--171" value="2/6/2024" style="rounded=0;whiteSpace=wrap;html=1;" vertex="1" parent="1">
          <mxGeometry x="-102" y="766.5" width="77" height="21" as="geometry" />
        </mxCell>
        <mxCell id="GZttbLxg8JypA5IhUF5--172" value="2/6/2024" style="rounded=0;whiteSpace=wrap;html=1;" vertex="1" parent="1">
          <mxGeometry x="-25" y="766.5" width="66" height="21" as="geometry" />
        </mxCell>
        <mxCell id="GZttbLxg8JypA5IhUF5--173" value="1" style="rounded=0;whiteSpace=wrap;html=1;" vertex="1" parent="1">
          <mxGeometry x="41" y="766.5" width="71" height="21" as="geometry" />
        </mxCell>
        <mxCell id="GZttbLxg8JypA5IhUF5--174" value="" style="rounded=0;whiteSpace=wrap;html=1;" vertex="1" parent="1">
          <mxGeometry x="112" y="766.5" width="965" height="21" as="geometry" />
        </mxCell>
        <mxCell id="GZttbLxg8JypA5IhUF5--175" value="" style="rounded=0;whiteSpace=wrap;html=1;fillColor=#0050ef;fontColor=#ffffff;strokeColor=#001DBC;" vertex="1" parent="1">
          <mxGeometry x="112" y="-11" width="330" height="20" as="geometry" />
        </mxCell>
        <mxCell id="GZttbLxg8JypA5IhUF5--176" value="" style="rounded=0;whiteSpace=wrap;html=1;fillColor=#bac8d3;strokeColor=#23445d;" vertex="1" parent="1">
          <mxGeometry x="112" y="10" width="47" height="20" as="geometry" />
        </mxCell>
        <mxCell id="GZttbLxg8JypA5IhUF5--177" value="" style="rounded=0;whiteSpace=wrap;html=1;fillColor=#bac8d3;strokeColor=#23445d;" vertex="1" parent="1">
          <mxGeometry x="159" y="52" width="86" height="20" as="geometry" />
        </mxCell>
        <mxCell id="GZttbLxg8JypA5IhUF5--178" value="" style="rounded=0;whiteSpace=wrap;html=1;fillColor=#bac8d3;strokeColor=#23445d;" vertex="1" parent="1">
          <mxGeometry x="159" y="73" width="47" height="20" as="geometry" />
        </mxCell>
        <mxCell id="GZttbLxg8JypA5IhUF5--179" value="" style="rounded=0;whiteSpace=wrap;html=1;fillColor=#bac8d3;strokeColor=#23445d;" vertex="1" parent="1">
          <mxGeometry x="245" y="94" width="136" height="20" as="geometry" />
        </mxCell>
        <mxCell id="GZttbLxg8JypA5IhUF5--180" value="" style="rounded=0;whiteSpace=wrap;html=1;fillColor=#bac8d3;strokeColor=#23445d;" vertex="1" parent="1">
          <mxGeometry x="382" y="115.5" width="60" height="20" as="geometry" />
        </mxCell>
        <mxCell id="GZttbLxg8JypA5IhUF5--181" value="" style="rhombus;whiteSpace=wrap;html=1;fillColor=#ffff88;strokeColor=#36393d;" vertex="1" parent="1">
          <mxGeometry x="424.5" y="136" width="20" height="21" as="geometry" />
        </mxCell>
        <mxCell id="GZttbLxg8JypA5IhUF5--182" value="" style="rounded=0;whiteSpace=wrap;html=1;fillColor=#0050ef;fontColor=#ffffff;strokeColor=#001DBC;" vertex="1" parent="1">
          <mxGeometry x="448" y="178.5" width="190" height="20" as="geometry" />
        </mxCell>
        <mxCell id="GZttbLxg8JypA5IhUF5--183" value="" style="rounded=0;whiteSpace=wrap;html=1;fillColor=#bac8d3;strokeColor=#23445d;" vertex="1" parent="1">
          <mxGeometry x="159" y="31" width="65" height="20" as="geometry" />
        </mxCell>
        <mxCell id="GZttbLxg8JypA5IhUF5--184" value="" style="rhombus;whiteSpace=wrap;html=1;fillColor=#ffff88;strokeColor=#36393d;" vertex="1" parent="1">
          <mxGeometry x="612" y="283" width="20" height="21" as="geometry" />
        </mxCell>
        <mxCell id="GZttbLxg8JypA5IhUF5--185" value="" style="rounded=0;whiteSpace=wrap;html=1;fillColor=#0050ef;fontColor=#ffffff;strokeColor=#001DBC;" vertex="1" parent="1">
          <mxGeometry x="638" y="325.5" width="300" height="20" as="geometry" />
        </mxCell>
        <mxCell id="GZttbLxg8JypA5IhUF5--186" value="" style="rounded=0;whiteSpace=wrap;html=1;fillColor=#0050ef;strokeColor=#001DBC;fontColor=#ffffff;" vertex="1" parent="1">
          <mxGeometry x="944" y="536" width="112" height="20" as="geometry" />
        </mxCell>
        <mxCell id="GZttbLxg8JypA5IhUF5--187" value="" style="rhombus;whiteSpace=wrap;html=1;fillColor=#ffff88;strokeColor=#36393d;" vertex="1" parent="1">
          <mxGeometry x="915" y="493" width="20" height="21" as="geometry" />
        </mxCell>
        <mxCell id="GZttbLxg8JypA5IhUF5--188" value="" style="rounded=0;whiteSpace=wrap;html=1;fillColor=#bac8d3;strokeColor=#23445d;" vertex="1" parent="1">
          <mxGeometry x="944" y="557" width="16" height="20" as="geometry" />
        </mxCell>
        <mxCell id="GZttbLxg8JypA5IhUF5--189" value="" style="rounded=0;whiteSpace=wrap;html=1;fillColor=#bac8d3;strokeColor=#23445d;" vertex="1" parent="1">
          <mxGeometry x="960" y="577.5" width="16" height="20" as="geometry" />
        </mxCell>
        <mxCell id="GZttbLxg8JypA5IhUF5--190" value="" style="rounded=0;whiteSpace=wrap;html=1;fillColor=#bac8d3;strokeColor=#23445d;" vertex="1" parent="1">
          <mxGeometry x="960" y="599" width="16" height="20" as="geometry" />
        </mxCell>
        <mxCell id="GZttbLxg8JypA5IhUF5--191" value="" style="rounded=0;whiteSpace=wrap;html=1;fillColor=#bac8d3;strokeColor=#23445d;" vertex="1" parent="1">
          <mxGeometry x="960" y="619.5" width="16" height="20" as="geometry" />
        </mxCell>
        <mxCell id="GZttbLxg8JypA5IhUF5--192" value="" style="rounded=0;whiteSpace=wrap;html=1;fillColor=#bac8d3;strokeColor=#23445d;" vertex="1" parent="1">
          <mxGeometry x="976" y="641" width="16" height="20" as="geometry" />
        </mxCell>
        <mxCell id="GZttbLxg8JypA5IhUF5--193" value="" style="rounded=0;whiteSpace=wrap;html=1;fillColor=#bac8d3;strokeColor=#23445d;" vertex="1" parent="1">
          <mxGeometry x="992" y="662" width="16" height="20" as="geometry" />
        </mxCell>
        <mxCell id="GZttbLxg8JypA5IhUF5--194" value="" style="rounded=0;whiteSpace=wrap;html=1;fillColor=#bac8d3;strokeColor=#23445d;" vertex="1" parent="1">
          <mxGeometry x="1008" y="683" width="16" height="20" as="geometry" />
        </mxCell>
        <mxCell id="GZttbLxg8JypA5IhUF5--195" value="" style="rounded=0;whiteSpace=wrap;html=1;fillColor=#bac8d3;strokeColor=#23445d;" vertex="1" parent="1">
          <mxGeometry x="1024" y="704" width="16" height="20" as="geometry" />
        </mxCell>
        <mxCell id="GZttbLxg8JypA5IhUF5--196" value="" style="rounded=0;whiteSpace=wrap;html=1;fillColor=#bac8d3;strokeColor=#23445d;" vertex="1" parent="1">
          <mxGeometry x="1024" y="725" width="16" height="20" as="geometry" />
        </mxCell>
        <mxCell id="GZttbLxg8JypA5IhUF5--197" value="" style="rounded=0;whiteSpace=wrap;html=1;fillColor=#bac8d3;strokeColor=#23445d;" vertex="1" parent="1">
          <mxGeometry x="1040" y="746" width="16" height="20" as="geometry" />
        </mxCell>
        <mxCell id="GZttbLxg8JypA5IhUF5--198" value="" style="rhombus;whiteSpace=wrap;html=1;fillColor=#ffff88;strokeColor=#36393d;" vertex="1" parent="1">
          <mxGeometry x="1040" y="766.5" width="20" height="21" as="geometry" />
        </mxCell>
        <mxCell id="GZttbLxg8JypA5IhUF5--199" value="Use Cases v0.3" style="rounded=0;whiteSpace=wrap;html=1;align=left;" vertex="1" parent="1">
          <mxGeometry x="-299" y="367" width="197" height="21" as="geometry" />
        </mxCell>
        <mxCell id="GZttbLxg8JypA5IhUF5--200" value="30/4/2024" style="rounded=0;whiteSpace=wrap;html=1;" vertex="1" parent="1">
          <mxGeometry x="-102" y="367" width="77" height="21" as="geometry" />
        </mxCell>
        <mxCell id="GZttbLxg8JypA5IhUF5--201" value="5/5/2024" style="rounded=0;whiteSpace=wrap;html=1;" vertex="1" parent="1">
          <mxGeometry x="-25" y="367" width="66" height="21" as="geometry" />
        </mxCell>
        <mxCell id="GZttbLxg8JypA5IhUF5--202" value="6" style="rounded=0;whiteSpace=wrap;html=1;" vertex="1" parent="1">
          <mxGeometry x="41" y="367" width="71" height="21" as="geometry" />
        </mxCell>
        <mxCell id="GZttbLxg8JypA5IhUF5--203" value="" style="rounded=0;whiteSpace=wrap;html=1;" vertex="1" parent="1">
          <mxGeometry x="112" y="367" width="965" height="21" as="geometry" />
        </mxCell>
        <mxCell id="GZttbLxg8JypA5IhUF5--204" value="Robustness Diagrams v0.2" style="rounded=0;whiteSpace=wrap;html=1;align=left;" vertex="1" parent="1">
          <mxGeometry x="-299" y="388" width="197" height="21" as="geometry" />
        </mxCell>
        <mxCell id="GZttbLxg8JypA5IhUF5--205" value="30/4/2024" style="rounded=0;whiteSpace=wrap;html=1;" vertex="1" parent="1">
          <mxGeometry x="-102" y="388" width="77" height="21" as="geometry" />
        </mxCell>
        <mxCell id="GZttbLxg8JypA5IhUF5--206" value="7/5/2024" style="rounded=0;whiteSpace=wrap;html=1;" vertex="1" parent="1">
          <mxGeometry x="-25" y="388" width="66" height="21" as="geometry" />
        </mxCell>
        <mxCell id="GZttbLxg8JypA5IhUF5--207" value="8" style="rounded=0;whiteSpace=wrap;html=1;" vertex="1" parent="1">
          <mxGeometry x="41" y="388" width="71" height="21" as="geometry" />
        </mxCell>
        <mxCell id="GZttbLxg8JypA5IhUF5--208" value="" style="rounded=0;whiteSpace=wrap;html=1;" vertex="1" parent="1">
          <mxGeometry x="112" y="388" width="965" height="21" as="geometry" />
        </mxCell>
        <mxCell id="GZttbLxg8JypA5IhUF5--209" value="Sequence Diagrams v0.2" style="rounded=0;whiteSpace=wrap;html=1;align=left;" vertex="1" parent="1">
          <mxGeometry x="-299" y="409" width="197" height="21" as="geometry" />
        </mxCell>
        <mxCell id="GZttbLxg8JypA5IhUF5--210" value="30/4/2024" style="rounded=0;whiteSpace=wrap;html=1;" vertex="1" parent="1">
          <mxGeometry x="-102" y="409" width="77" height="21" as="geometry" />
        </mxCell>
        <mxCell id="GZttbLxg8JypA5IhUF5--211" value="9/5/2024" style="rounded=0;whiteSpace=wrap;html=1;" vertex="1" parent="1">
          <mxGeometry x="-25" y="409" width="66" height="21" as="geometry" />
        </mxCell>
        <mxCell id="GZttbLxg8JypA5IhUF5--212" value="10" style="rounded=0;whiteSpace=wrap;html=1;" vertex="1" parent="1">
          <mxGeometry x="41" y="409" width="71" height="21" as="geometry" />
        </mxCell>
        <mxCell id="GZttbLxg8JypA5IhUF5--213" value="" style="rounded=0;whiteSpace=wrap;html=1;" vertex="1" parent="1">
          <mxGeometry x="112" y="409" width="965" height="21" as="geometry" />
        </mxCell>
        <mxCell id="GZttbLxg8JypA5IhUF5--214" value="" style="rounded=0;whiteSpace=wrap;html=1;fillColor=#bac8d3;strokeColor=#23445d;" vertex="1" parent="1">
          <mxGeometry x="638" y="346.5" width="16" height="20" as="geometry" />
        </mxCell>
        <mxCell id="GZttbLxg8JypA5IhUF5--215" value="" style="rounded=0;whiteSpace=wrap;html=1;fillColor=#bac8d3;strokeColor=#23445d;" vertex="1" parent="1">
          <mxGeometry x="448" y="199.5" width="36" height="20" as="geometry" />
        </mxCell>
        <mxCell id="GZttbLxg8JypA5IhUF5--216" value="" style="rounded=0;whiteSpace=wrap;html=1;fillColor=#bac8d3;strokeColor=#23445d;" vertex="1" parent="1">
          <mxGeometry x="484" y="220.5" width="56" height="20" as="geometry" />
        </mxCell>
        <mxCell id="GZttbLxg8JypA5IhUF5--217" value="" style="rounded=0;whiteSpace=wrap;html=1;fillColor=#bac8d3;strokeColor=#23445d;" vertex="1" parent="1">
          <mxGeometry x="596" y="262.5" width="36" height="20" as="geometry" />
        </mxCell>
        <mxCell id="GZttbLxg8JypA5IhUF5--218" value="" style="rounded=0;whiteSpace=wrap;html=1;fillColor=#bac8d3;strokeColor=#23445d;" vertex="1" parent="1">
          <mxGeometry x="540" y="241.5" width="56" height="20" as="geometry" />
        </mxCell>
        <mxCell id="GZttbLxg8JypA5IhUF5--219" value="" style="rounded=0;whiteSpace=wrap;html=1;fillColor=#bac8d3;strokeColor=#23445d;" vertex="1" parent="1">
          <mxGeometry x="654" y="367.5" width="46" height="20" as="geometry" />
        </mxCell>
        <mxCell id="GZttbLxg8JypA5IhUF5--220" value="" style="rounded=0;whiteSpace=wrap;html=1;fillColor=#bac8d3;strokeColor=#23445d;" vertex="1" parent="1">
          <mxGeometry x="654" y="388.5" width="68" height="20" as="geometry" />
        </mxCell>
        <mxCell id="GZttbLxg8JypA5IhUF5--221" value="" style="rounded=0;whiteSpace=wrap;html=1;fillColor=#bac8d3;strokeColor=#23445d;" vertex="1" parent="1">
          <mxGeometry x="654" y="409" width="94" height="20" as="geometry" />
        </mxCell>
        <mxCell id="GZttbLxg8JypA5IhUF5--222" value="" style="rounded=0;whiteSpace=wrap;html=1;fillColor=#bac8d3;strokeColor=#23445d;" vertex="1" parent="1">
          <mxGeometry x="777" y="452" width="24" height="20" as="geometry" />
        </mxCell>
        <mxCell id="GZttbLxg8JypA5IhUF5--223" value="" style="rounded=0;whiteSpace=wrap;html=1;fillColor=#bac8d3;strokeColor=#23445d;" vertex="1" parent="1">
          <mxGeometry x="801" y="473" width="134" height="20" as="geometry" />
        </mxCell>
        <mxCell id="GZttbLxg8JypA5IhUF5--224" value="&lt;div align=&quot;left&quot;&gt;Domain Model v0.3&lt;/div&gt;" style="rounded=0;whiteSpace=wrap;html=1;align=left;" vertex="1" parent="1">
          <mxGeometry x="-299" y="430" width="197" height="21" as="geometry" />
        </mxCell>
        <mxCell id="GZttbLxg8JypA5IhUF5--225" value="10/5/2024" style="rounded=0;whiteSpace=wrap;html=1;" vertex="1" parent="1">
          <mxGeometry x="-102" y="430" width="77" height="21" as="geometry" />
        </mxCell>
        <mxCell id="GZttbLxg8JypA5IhUF5--226" value="11/5/2024" style="rounded=0;whiteSpace=wrap;html=1;" vertex="1" parent="1">
          <mxGeometry x="-25" y="430" width="66" height="21" as="geometry" />
        </mxCell>
        <mxCell id="GZttbLxg8JypA5IhUF5--227" value="2" style="rounded=0;whiteSpace=wrap;html=1;" vertex="1" parent="1">
          <mxGeometry x="41" y="430" width="71" height="21" as="geometry" />
        </mxCell>
        <mxCell id="GZttbLxg8JypA5IhUF5--228" value="" style="rounded=0;whiteSpace=wrap;html=1;" vertex="1" parent="1">
          <mxGeometry x="112" y="430" width="965" height="21" as="geometry" />
        </mxCell>
        <mxCell id="GZttbLxg8JypA5IhUF5--229" value="" style="rounded=0;whiteSpace=wrap;html=1;fillColor=#bac8d3;strokeColor=#23445d;" vertex="1" parent="1">
          <mxGeometry x="748" y="431" width="26" height="20" as="geometry" />
        </mxCell>
      </root>
    </mxGraphModel>
  </diagram>
</mxfile>
